# xmcd
#
# Track frame offsets:
#	150
#	28797
#	48429
#	79137
#	102488
#	139628
#	164828
#	234018
#	255743
#	293578
#
# Disc length: 4289 seconds
#
# Revision: 1
# Processed by: cddbd v1.5.2PL0 Copyright (c) Steve Scherf et al.
# Submitted via: audiograbber 1.83.01
#
DISCID=8410bf0a
DTITLE=Grateful Dead - 95-06-02 Shoreline Amphitheatre, Mountain View CA
DYEAR=1900
DGENRE=
TTITLE0=Alabama Getaway
TTITLE1=Greatest Story Ever Told
TTITLE2=Candyman
TTITLE3=Good Morning Little Schoolgirl
TTITLE4=Ramble On Rose
TTITLE5=El Paso
TTITLE6=Bird Song
TTITLE7=Promised Land
TTITLE8=New Speedway Boogie
TTITLE9=That Would Be Something
EXTD=
EXTT0=
EXTT1=
EXTT2=
EXTT3=
EXTT4=
EXTT5=
EXTT6=
EXTT7=
EXTT8=
EXTT9=
PLAYORDER=
